<svg xmlns="http://www.w3.org/2000/svg" width="140" height="42" viewBox="0 0 140 42">
  <defs>
    <linearGradient id="appStoreGradient" x1="0%" y1="0%" x2="100%" y2="100%">
      <stop offset="0%" style="stop-color:#1a73e8"/>
      <stop offset="100%" style="stop-color:#174ea6"/>
    </linearGradient>
  </defs>
  <rect width="140" height="42" rx="8" fill="black"/>
  <g fill="#fff">
    <path d="M50.5 13.2c0-2.3 1.2-3.6 3.2-3.6 1.1 0 2 .4 2.6 1.2l-.9.6c-.4-.5-.9-.8-1.7-.8-1.4 0-2.2.9-2.2 2.6s.8 2.6 2.2 2.6c.8 0 1.3-.3 1.7-.8l.9.6c-.6.8-1.5 1.2-2.6 1.2-2 0-3.2-1.3-3.2-3.6zm7.9 3.5v-7h1v7h-1zm2.4-2.1v-1h2.3v1h-2.3zm4.6 2.1v-7h1v7h-1zm7.3.1c-2 0-3.2-1.3-3.2-3.6s1.2-3.6 3.2-3.6 3.2 1.3 3.2 3.6-1.2 3.6-3.2 3.6zm0-1c1.4 0 2.2-.9 2.2-2.6s-.8-2.6-2.2-2.6-2.2.9-2.2 2.6.8 2.6 2.2 2.6zm6.5 1c-1.2 0-2-.6-2-1.7 0-1.2.8-1.7 2.3-1.7h1.5v-.3c0-.8-.5-1.2-1.5-1.2-.6 0-1.2.2-1.7.5l-.4-.8c.6-.4 1.4-.7 2.2-.7 1.5 0 2.4.7 2.4 2.1v3.8h-1v-.8c-.4.6-1.1.8-1.8.8zm.2-.9c.8 0 1.6-.4 1.6-1.2v-.7h-1.4c-1 0-1.4.3-1.4 1 0 .6.4.9 1.2.9zm5.1.8v-5.2h1v.9c.4-.6 1-.9 1.8-.9v1c-.1 0-.2 0-.3 0-.8 0-1.5.4-1.5 1.7v2.6h-1zm4.7 0v-7h1v7h-1zm7.3.1c-2 0-3.2-1.3-3.2-3.6s1.2-3.6 3.2-3.6 3.2 1.3 3.2 3.6-1.2 3.6-3.2 3.6zm0-1c1.4 0 2.2-.9 2.2-2.6s-.8-2.6-2.2-2.6-2.2.9-2.2 2.6.8 2.6 2.2 2.6zm6.5 1c-1.2 0-2-.6-2-1.7 0-1.2.8-1.7 2.3-1.7h1.5v-.3c0-.8-.5-1.2-1.5-1.2-.6 0-1.2.2-1.7.5l-.4-.8c.6-.4 1.4-.7 2.2-.7 1.5 0 2.4.7 2.4 2.1v3.8h-1v-.8c-.4.6-1.1.8-1.8.8zm.2-.9c.8 0 1.6-.4 1.6-1.2v-.7h-1.4c-1 0-1.4.3-1.4 1 0 .6.4.9 1.2.9z"/>
    <text x="70" y="28" font-family="system-ui,-apple-system" font-size="14" font-weight="600">App Store</text>
    <text x="70" y="12" font-family="system-ui,-apple-system" font-size="10">Download on the</text>
    <path d="M39.3 22.6c-.3.4-.8.6-1.3.6-.9 0-1.6-.7-1.6-1.6s.7-1.6 1.6-1.6c.5 0 1 .2 1.3.6.2-.3.5-.6.8-.8-.5-.6-1.3-1-2.1-1-1.5 0-2.8 1.2-2.8 2.8s1.2 2.8 2.8 2.8c.8 0 1.6-.4 2.1-1-.3-.2-.6-.5-.8-.8z"/>
  </g>
</svg> 